<mxfile host="Electron" modified="2024-04-09T06:37:48.226Z" agent="Mozilla/5.0 (Windows NT 10.0; Win64; x64) AppleWebKit/537.36 (KHTML, like Gecko) draw.io/21.2.8 Chrome/112.0.5615.165 Electron/24.2.0 Safari/537.36" etag="bfcl9e-M7Wg9bvykil4m" version="21.2.8" type="device">
  <diagram name="Page-1" id="npSCDSXNZCnV4-MF7tP_">
    <mxGraphModel dx="2400" dy="998" grid="0" gridSize="10" guides="1" tooltips="1" connect="1" arrows="1" fold="1" page="0" pageScale="1" pageWidth="827" pageHeight="1169" math="0" shadow="0">
      <root>
        <mxCell id="0" />
        <mxCell id="1" parent="0" />
        <mxCell id="0ligh6eBOzKERNF5kr5k-1" value="" style="rounded=0;whiteSpace=wrap;html=1;opacity=20;strokeWidth=3;" parent="1" vertex="1">
          <mxGeometry x="257" y="321" width="398" height="176" as="geometry" />
        </mxCell>
        <mxCell id="0ligh6eBOzKERNF5kr5k-12" value="" style="rounded=0;whiteSpace=wrap;html=1;opacity=50;dashed=1;" parent="1" vertex="1">
          <mxGeometry x="286" y="340" width="334" height="118" as="geometry" />
        </mxCell>
        <mxCell id="0ligh6eBOzKERNF5kr5k-3" value="Server" style="text;html=1;strokeColor=none;fillColor=none;align=center;verticalAlign=middle;whiteSpace=wrap;rounded=0;opacity=20;textOpacity=20;fontStyle=1" parent="1" vertex="1">
          <mxGeometry x="595" y="470" width="60" height="30" as="geometry" />
        </mxCell>
        <mxCell id="0ligh6eBOzKERNF5kr5k-4" value="" style="rounded=0;whiteSpace=wrap;html=1;" parent="1" vertex="1">
          <mxGeometry x="299" y="349" width="120" height="60" as="geometry" />
        </mxCell>
        <mxCell id="0ligh6eBOzKERNF5kr5k-5" value="App1 container" style="text;html=1;strokeColor=none;fillColor=none;align=center;verticalAlign=middle;whiteSpace=wrap;rounded=0;" parent="1" vertex="1">
          <mxGeometry x="319" y="362.5" width="90" height="30" as="geometry" />
        </mxCell>
        <mxCell id="0ligh6eBOzKERNF5kr5k-22" style="edgeStyle=orthogonalEdgeStyle;rounded=0;orthogonalLoop=1;jettySize=auto;html=1;startArrow=classic;startFill=1;strokeColor=#FFFF00;" parent="1" edge="1">
          <mxGeometry relative="1" as="geometry">
            <mxPoint x="424.61999837239586" y="377.17668294270834" as="targetPoint" />
            <mxPoint x="482" y="377" as="sourcePoint" />
            <Array as="points">
              <mxPoint x="454" y="377" />
            </Array>
          </mxGeometry>
        </mxCell>
        <mxCell id="0ligh6eBOzKERNF5kr5k-6" value="" style="rounded=0;whiteSpace=wrap;html=1;" parent="1" vertex="1">
          <mxGeometry x="490" y="347.5" width="120" height="60" as="geometry" />
        </mxCell>
        <mxCell id="0ligh6eBOzKERNF5kr5k-7" value="App2 container" style="text;html=1;strokeColor=none;fillColor=none;align=center;verticalAlign=middle;whiteSpace=wrap;rounded=0;" parent="1" vertex="1">
          <mxGeometry x="509" y="362.5" width="90" height="30" as="geometry" />
        </mxCell>
        <mxCell id="0ligh6eBOzKERNF5kr5k-18" style="edgeStyle=orthogonalEdgeStyle;rounded=0;orthogonalLoop=1;jettySize=auto;html=1;startArrow=classic;startFill=1;strokeColor=#FFFF00;" parent="1" edge="1">
          <mxGeometry relative="1" as="geometry">
            <mxPoint x="358.63192220052076" y="342.52379208519346" as="targetPoint" />
            <mxPoint x="358.87" y="188" as="sourcePoint" />
          </mxGeometry>
        </mxCell>
        <mxCell id="0ligh6eBOzKERNF5kr5k-10" value="" style="rounded=0;whiteSpace=wrap;html=1;" parent="1" vertex="1">
          <mxGeometry x="299" y="125" width="120" height="60" as="geometry" />
        </mxCell>
        <mxCell id="0ligh6eBOzKERNF5kr5k-11" value="Browser" style="text;html=1;strokeColor=none;fillColor=none;align=center;verticalAlign=middle;whiteSpace=wrap;rounded=0;" parent="1" vertex="1">
          <mxGeometry x="314" y="140" width="90" height="30" as="geometry" />
        </mxCell>
        <mxCell id="0ligh6eBOzKERNF5kr5k-13" value="local_network" style="text;html=1;strokeColor=none;fillColor=none;align=center;verticalAlign=middle;whiteSpace=wrap;rounded=0;opacity=50;textOpacity=50;" parent="1" vertex="1">
          <mxGeometry x="538" y="431" width="60" height="30" as="geometry" />
        </mxCell>
        <mxCell id="0ligh6eBOzKERNF5kr5k-15" value="&lt;font style=&quot;font-size: 9px;&quot;&gt;server_ip:3000&lt;/font&gt;" style="text;html=1;align=center;verticalAlign=middle;resizable=0;points=[];autosize=1;strokeColor=none;fillColor=none;fontStyle=1;fontColor=#FFFF00;" parent="1" vertex="1">
          <mxGeometry x="274" y="194" width="81" height="26" as="geometry" />
        </mxCell>
        <mxCell id="0ligh6eBOzKERNF5kr5k-9" value="Internet" style="ellipse;shape=cloud;whiteSpace=wrap;html=1;align=center;" parent="1" vertex="1">
          <mxGeometry x="309" y="220" width="100" height="60" as="geometry" />
        </mxCell>
        <mxCell id="0ligh6eBOzKERNF5kr5k-24" value="&lt;font color=&quot;#ffff00&quot;&gt;http://app2:3001&lt;/font&gt;" style="text;html=1;align=center;verticalAlign=middle;resizable=0;points=[];autosize=1;strokeColor=none;fillColor=none;fontStyle=1;fontSize=8;" parent="1" vertex="1">
          <mxGeometry x="415.5" y="383" width="79" height="22" as="geometry" />
        </mxCell>
        <mxCell id="i_XB_Ajfabu3l5t569fm-1" value="" style="ellipse;whiteSpace=wrap;html=1;fillColor=none;opacity=40;" parent="1" vertex="1">
          <mxGeometry x="-350" y="382" width="290" height="118" as="geometry" />
        </mxCell>
        <mxCell id="i_XB_Ajfabu3l5t569fm-2" value="" style="ellipse;whiteSpace=wrap;html=1;fillColor=none;rotation=-90;opacity=40;" parent="1" vertex="1">
          <mxGeometry x="-457" y="272" width="290" height="118" as="geometry" />
        </mxCell>
        <mxCell id="i_XB_Ajfabu3l5t569fm-9" style="edgeStyle=orthogonalEdgeStyle;rounded=0;orthogonalLoop=1;jettySize=auto;html=1;entryX=0;entryY=0.5;entryDx=0;entryDy=0;endArrow=open;endFill=0;startArrow=open;startFill=0;strokeColor=#FFFF00;" parent="1" source="i_XB_Ajfabu3l5t569fm-3" target="i_XB_Ajfabu3l5t569fm-4" edge="1">
          <mxGeometry relative="1" as="geometry" />
        </mxCell>
        <mxCell id="i_XB_Ajfabu3l5t569fm-3" value="A" style="ellipse;whiteSpace=wrap;html=1;aspect=fixed;fillColor=none;" parent="1" vertex="1">
          <mxGeometry x="-339" y="414" width="54" height="54" as="geometry" />
        </mxCell>
        <mxCell id="i_XB_Ajfabu3l5t569fm-4" value="B" style="ellipse;whiteSpace=wrap;html=1;aspect=fixed;fillColor=none;" parent="1" vertex="1">
          <mxGeometry x="-210" y="414" width="54" height="54" as="geometry" />
        </mxCell>
        <mxCell id="i_XB_Ajfabu3l5t569fm-8" style="edgeStyle=orthogonalEdgeStyle;rounded=0;orthogonalLoop=1;jettySize=auto;html=1;endArrow=open;endFill=0;startArrow=open;startFill=0;sourcePerimeterSpacing=0;endSize=6;strokeColor=#FFFF00;" parent="1" source="i_XB_Ajfabu3l5t569fm-6" target="i_XB_Ajfabu3l5t569fm-3" edge="1">
          <mxGeometry relative="1" as="geometry" />
        </mxCell>
        <mxCell id="i_XB_Ajfabu3l5t569fm-6" value="Browser" style="whiteSpace=wrap;html=1;aspect=fixed;" parent="1" vertex="1">
          <mxGeometry x="-338.5" y="226" width="53" height="53" as="geometry" />
        </mxCell>
        <mxCell id="i_XB_Ajfabu3l5t569fm-7" value="Internet" style="ellipse;shape=cloud;whiteSpace=wrap;html=1;align=center;" parent="1" vertex="1">
          <mxGeometry x="-352.5" y="319" width="81" height="44" as="geometry" />
        </mxCell>
        <mxCell id="i_XB_Ajfabu3l5t569fm-10" value="&lt;font style=&quot;font-size: 9px;&quot;&gt;server_ip:port_A&lt;/font&gt;" style="text;html=1;align=center;verticalAlign=middle;resizable=0;points=[];autosize=1;strokeColor=none;fillColor=none;fontStyle=1;fontColor=#FFFF00;" parent="1" vertex="1">
          <mxGeometry x="-315" y="293" width="90" height="26" as="geometry" />
        </mxCell>
        <mxCell id="i_XB_Ajfabu3l5t569fm-11" value="&lt;font color=&quot;#ffff00&quot;&gt;B:port_B&lt;/font&gt;" style="text;html=1;align=center;verticalAlign=middle;resizable=0;points=[];autosize=1;strokeColor=none;fillColor=none;fontStyle=1;fontSize=8;" parent="1" vertex="1">
          <mxGeometry x="-270" y="442" width="52" height="22" as="geometry" />
        </mxCell>
        <mxCell id="i_XB_Ajfabu3l5t569fm-12" value="local-network" style="text;html=1;strokeColor=none;fillColor=none;align=center;verticalAlign=middle;whiteSpace=wrap;rounded=0;opacity=40;textOpacity=40;" parent="1" vertex="1">
          <mxGeometry x="-239" y="493" width="75" height="30" as="geometry" />
        </mxCell>
        <mxCell id="i_XB_Ajfabu3l5t569fm-13" value="global-network" style="text;html=1;strokeColor=none;fillColor=none;align=center;verticalAlign=middle;whiteSpace=wrap;rounded=0;opacity=40;textOpacity=40;" parent="1" vertex="1">
          <mxGeometry x="-354" y="159" width="84" height="30" as="geometry" />
        </mxCell>
      </root>
    </mxGraphModel>
  </diagram>
</mxfile>
